grf
version=1
nRows=32
nColumns=19
inDegrees=yes
endheader
time	ground_force_1_vx	ground_force_1_vy	ground_force_1_vz	ground_force_1_px	ground_force_1_py	ground_force_1_pz	ground_moment_1_mx	ground_moment_1_my	ground_moment_1_mz	ground_force_2_vx	ground_force_2_vy	ground_force_2_vz	ground_force_2_px	ground_force_2_py	ground_force_2_pz	ground_moment_2_mx	ground_moment_2_my	ground_moment_2_mz
7.025000	-0.157672	397.013804	-42.294545	0.179199	0.000000	-1.026057	0.000000	4.603030	0.000000	0.942558	481.691792	63.482301	0.197261	0.000000	-1.418315	0.000000	1.416653	0.000000
7.026000	-0.220689	397.623797	-42.357366	0.177775	0.000000	-1.027538	-0.000000	4.606746	0.000000	0.656576	482.447003	63.657387	0.198687	0.000000	-1.418418	0.000000	1.427314	0.000000
7.027000	-0.270388	398.247064	-42.420927	0.181115	0.000000	-1.026498	-0.000000	4.610317	0.000000	0.389043	483.218497	63.829410	0.196748	0.000000	-1.417715	0.000000	1.437159	0.000000
7.028000	-0.308098	398.888524	-42.484994	0.178766	0.000000	-1.027467	-0.000000	4.613714	0.000000	0.141272	484.008363	63.998116	0.198317	0.000000	-1.415609	0.000000	1.446213	0.000000
7.029000	-0.335299	399.553120	-42.549330	0.177492	0.000000	-1.027280	-0.000000	4.616913	0.000000	-0.085596	484.818568	64.163205	0.196926	0.000000	-1.418602	0.000000	1.454517	0.000000
7.030000	-0.353696	400.245507	-42.613669	0.175573	0.000000	-1.034728	-0.000000	4.619905	0.000000	-0.290537	485.650815	64.324322	0.197292	0.000000	-1.419489	0.000000	1.462105	0.000000
7.031000	-0.365191	400.969596	-42.677717	0.178595	0.000000	-1.024422	-0.000000	4.622701	0.000000	-0.472638	486.506791	64.481035	0.200086	0.000000	-1.418648	0.000000	1.469006	0.000000
7.032000	-0.371701	401.728525	-42.741181	0.179260	0.000000	-1.030699	-0.000000	4.625319	0.000000	-0.631152	487.387923	64.632823	0.197858	0.000000	-1.416697	0.000000	1.475255	0.000000
7.033000	-0.375040	402.524892	-42.803838	0.176680	0.000000	-1.030262	-0.000000	4.627784	0.000000	-0.765524	488.295002	64.779087	0.197174	0.000000	-1.416782	0.000000	1.480922	0.000000
7.034000	-0.376952	403.360584	-42.865565	0.178669	0.000000	-1.022357	-0.000000	4.630130	0.000000	-0.875360	489.228499	64.919184	0.197010	0.000000	-1.413577	0.000000	1.486086	0.000000
7.035000	-0.379117	404.236693	-42.926297	0.181165	0.000000	-1.028131	-0.000000	4.632400	0.000000	-0.960325	490.188572	65.052468	0.196188	0.000000	-1.416566	0.000000	1.490803	0.000000
7.036000	-0.383087	405.154484	-42.985980	0.177634	0.000000	-1.024999	-0.000000	4.634632	0.000000	-1.020071	491.174421	65.178336	0.197653	0.000000	-1.416379	-0.000000	1.495078	0.000000
7.037000	-0.390278	406.116685	-43.044578	0.177807	0.000000	-1.025384	-0.000000	4.636836	0.000000	-1.054264	492.184118	65.296235	0.196727	0.000000	-1.417266	-0.000000	1.498874	0.000000
7.038000	-0.402004	407.127613	-43.102080	0.178566	0.000000	-1.030621	-0.000000	4.638995	0.000000	-1.062656	493.214932	65.405650	0.196671	0.000000	-1.415227	-0.000000	1.502136	0.000000
7.039000	-0.419499	408.192412	-43.158433	0.175829	0.000000	-1.023860	-0.000000	4.641065	0.000000	-1.045213	494.263442	65.506164	0.196911	0.000000	-1.413550	-0.000000	1.504800	0.000000
7.040000	-0.443925	409.316707	-43.213525	0.175595	0.000000	-1.027122	-0.000000	4.642973	0.000000	-1.002239	495.325466	65.597582	0.195678	0.000000	-1.417623	-0.000000	1.506810	0.000000
7.041000	-0.476386	410.506740	-43.267268	0.173162	0.000000	-1.035851	-0.000000	4.644633	0.000000	-0.934386	496.396172	65.679951	0.196697	0.000000	-1.416106	-0.000000	1.508127	0.000000
7.042000	-0.518030	411.768891	-43.319679	0.171084	0.000000	-1.025391	-0.000000	4.645969	0.000000	-0.842571	497.470453	65.753438	0.198354	0.000000	-1.416914	-0.000000	1.508730	0.000000
7.043000	-0.570195	413.108493	-43.370883	0.173555	0.000000	-1.028181	-0.000000	4.646946	0.000000	-0.727932	498.543165	65.818160	0.196690	0.000000	-1.415617	-0.000000	1.508630	0.000000
7.044000	-0.634446	414.529365	-43.421098	0.174907	0.000000	-1.025446	-0.000000	4.647555	0.000000	-0.591827	499.609173	65.874110	0.194359	0.000000	-1.414681	-0.000000	1.507884	0.000000
7.045000	-0.712505	416.034525	-43.470619	0.173065	0.000000	-1.025434	-0.000000	4.647768	0.000000	-0.435792	500.663758	65.921229	0.194362	0.000000	-1.420495	-0.000000	1.506578	0.000000
7.046000	-0.806127	417.626808	-43.519791	0.175576	0.000000	-1.025596	-0.000000	4.647509	0.000000	-0.261457	501.703168	65.959522	0.193220	0.000000	-1.415029	-0.000000	1.504776	0.000000
7.047000	-0.916837	419.308594	-43.568979	0.173574	0.000000	-1.029330	-0.000000	4.646693	0.000000	-0.070457	502.724173	65.989071	0.194257	0.000000	-1.414079	-0.000000	1.502501	0.000000
7.048000	-1.045685	421.081294	-43.618494	0.174060	0.000000	-1.028974	-0.000000	4.645288	0.000000	0.135600	503.723111	66.009977	0.194471	0.000000	-1.417970	-0.000000	1.499731	0.000000
7.049000	-1.193172	422.945072	-43.668502	0.174728	0.000000	-1.032660	-0.000000	4.643318	0.000000	0.355128	504.695840	66.022316	0.194915	0.000000	-1.412020	-0.000000	1.496426	0.000000
7.050000	-1.359299	424.898653	-43.719040	0.171268	0.000000	-1.026434	-0.000000	4.640863	0.000000	0.586532	505.638129	66.026145	0.194577	0.000000	-1.415204	-0.000000	1.492551	0.000000
7.051000	-1.543656	426.939301	-43.770186	0.172099	0.000000	-1.030721	-0.000000	4.638040	0.000000	0.828191	506.545969	66.021482	0.193907	0.000000	-1.414999	-0.000000	1.488091	0.000000
7.052000	-1.745542	429.063117	-43.822172	0.171877	0.000000	-1.027891	-0.000000	4.634980	0.000000	1.078459	507.416066	66.008291	0.193654	0.000000	-1.413758	-0.000000	1.483038	0.000000
7.053000	-1.964042	431.265297	-43.875320	0.172876	0.000000	-1.036215	-0.000000	4.631804	0.000000	1.335661	508.245922	65.986504	0.195594	0.000000	-1.415925	-0.000000	1.477388	0.000000
7.054000	-2.198058	433.539947	-43.929970	0.171137	0.000000	-1.030433	-0.000000	4.628624	0.000000	1.598123	509.033490	65.956063	0.194106	0.000000	-1.414717	-0.000000	1.471147	0.000000
7.055000	-2.446355	435.879899	-43.986470	0.169564	0.000000	-1.031465	-0.000000	4.625524	0.000000	1.864211	509.777152	65.916929	0.193076	0.000000	-1.413690	-0.000000	1.464344	0.000000
7.056000	-2.707682	438.277294	-44.045129	0.169979	0.000000	-1.031455	-0.000000	4.622551	0.000000	2.132347	510.475758	65.869056	0.192166	0.000000	-1.411674	-0.000000	1.457032	0.000000
